<svg xmlns="http://www.w3.org/2000/svg" viewBox="0 0 200.79 172.81"><defs><style>.cls-1{fill:#fff;}</style></defs><g id="Capa_2" data-name="Capa 2"><g id="Capa_3" data-name="Capa 3"><path class="cls-1" d="M45.82,91.63a45.58,45.58,0,0,0,22.9-6.14v6.14H91.63V0H68.72V6.14a45.81,45.81,0,1,0-22.9,85.49Zm0-68.72A22.91,22.91,0,1,1,22.91,45.82,22.9,22.9,0,0,1,45.82,22.91Z"/><polygon class="cls-1" points="137.45 91.63 160.36 91.63 160.36 56.82 195.16 56.82 195.16 33.92 160.36 33.92 160.36 0 137.45 0 137.45 33.92 102.64 33.92 102.64 56.82 137.45 56.82 137.45 91.63"/><path class="cls-1" d="M173.11,115.54a91.62,91.62,0,0,1-143,0H2.37a114.57,114.57,0,0,0,198.42,0Z"/></g></g></svg>